<?xml version="1.0" encoding="UTF-8"?>
<svg id="Layer_2" data-name="Layer 2" xmlns="http://www.w3.org/2000/svg" viewBox="0 0 2070 499.27">
  <defs>
    <style>
      .cls-1 {
        fill: #bf0033;
      }

      .cls-1, .cls-2 {
        stroke-width: 0px;
      }

      .cls-2 {
        fill: #0a6696;
      }
    </style>
  </defs>
  <g id="Logo">
    <g id="ExWeiv_Logo" data-name="ExWeiv Logo">
      <polygon class="cls-2" points="87.82 273.58 256.7 273.58 267.74 202.71 87.82 202.66 87.82 74.31 273.58 74.31 285.31 .06 0 0 0 493.13 283.72 493.13 294.77 418.88 87.38 418.88 87.82 273.58"/>
      <polygon class="cls-2" points="556 151.99 478.86 278.32 402 151.99 312.32 141.86 430.06 317.49 312 493.45 402 493.45 478.79 358.33 555 493.45 645.02 493.47 527.61 317.51 645.36 141.86 556 151.99"/>
      <path class="cls-1" d="m1525.21,191.91c-11.48-18.46-27.14-32.87-46.95-43.23-19.82-10.36-43.91-15.54-72.28-15.54s-52.47,4.85-73.63,14.52c-21.17,9.69-38.84,23.2-53.03,40.53-14.19,17.34-24.77,37.15-31.75,59.45-6.99,22.29-10.47,46.05-10.47,71.27,0,36.93,6.64,68.9,19.93,95.92,13.28,27.02,33.1,47.86,59.44,62.49,26.34,14.63,59.11,21.95,98.29,21.95,20.71,0,41.77-2.03,63.16-6.08,21.38-4.05,40.19-9.23,56.41-15.54l-9.46-60.12c-12.16,3.61-27.02,7.33-44.58,11.15-17.56,3.83-35.36,5.74-53.37,5.74-26.12,0-47.86-5.17-65.19-15.54-17.34-10.36-28.94-25.44-34.79-45.26-3.37-11.41-4.49-24.25-3.38-38.51h223.6c4.05-27.92,4.27-54.15.68-78.7-3.61-24.54-11.15-46.04-22.63-64.51Zm-54.38,90.52c0,1.8-.23,3.83-.68,6.08h-146.22c.27-12.17,2.06-23.88,5.37-35.12,5.17-17.56,13.96-31.97,26.34-43.24,12.38-11.25,28.04-16.89,46.95-16.89,16.21,0,29.39,3.72,39.52,11.15,10.13,7.43,17.45,17.46,21.95,30.06,4.5,12.61,6.76,27.25,6.76,43.91v4.05Z"/>
      <polygon class="cls-1" points="1149 10.13 1102 219.6 1070.92 392.53 1069.57 392.53 1033.09 219.6 985.13 10.13 897.99 10.13 850.7 219.6 814.23 392.53 812.87 392.53 781.8 219.6 734 10.13 643.99 .06 756.58 493.13 857.91 493.13 941.22 124.35 942.57 124.35 1023.41 493.13 1128.11 493.13 1239.13 .06 1149 10.13"/>
      <path class="cls-2" d="m1684.62,44.49c-10.13-9-22.19-13.51-36.14-13.51s-26.01,4.51-36.14,13.51c-10.13,9.01-15.2,20.72-15.2,35.13s5.07,26.12,15.2,35.13c10.13,9.01,22.18,13.51,36.14,13.51s26.01-4.5,36.14-13.51c10.13-9,15.2-20.71,15.2-35.13s-5.07-26.11-15.2-35.13Z"/>
      <polygon class="cls-1" points="1605.25 148.61 1605.25 493.13 1692.39 493.13 1692.17 138.48 1605.25 148.61"/>
      <polygon class="cls-1" points="1980 148.61 1899.77 412.8 1898.42 412.8 1816 148.61 1726.03 138.4 1853.83 491.83 1943.68 491.83 2070 138.48 1980 148.61"/>
      <polyline class="cls-2" points="668.51 107.44 668.51 107.44 734 10.13 643.99 .06"/>
    </g>
  </g>
</svg>